<svg id="Color" xmlns="http://www.w3.org/2000/svg" viewBox="0 0 271.94 335.34"><defs><style>.cls-1,.cls-2{fill:#e7b141;}.cls-2,.cls-3,.cls-5{stroke:#fff;stroke-miterlimit:10;}.cls-3{fill:#80207e;}.cls-4{fill:none;}.cls-5{fill:#fff;stroke-width:0.5px;}</style></defs><path class="cls-1" d="M253.12,138.07s-33.05,32.51-41.38,54.81c-3.49-1.34-79.53-43.25-79.53-43.25S155.32,120.88,159.62,94c-4-3.22,43.79-9.94,43.79-9.94S254.19,108,253.12,138.07Z" transform="translate(-43.78 -12.33)"/><circle class="cls-1" cx="137.06" cy="42.72" r="42.72"/><ellipse class="cls-1" cx="230.7" cy="88.66" rx="41.24" ry="42.45"/><ellipse class="cls-1" cx="186.77" cy="57.5" rx="55.62" ry="53.2"/><path class="cls-2" d="M285.53,77.91s7.15-33.77-24.59-52.63S198.84,22,190.33,33.1" transform="translate(-43.78 -12.33)"/><path class="cls-2" d="M255.41,117.42S198.32,143.72,177,84.07" transform="translate(-43.78 -12.33)"/><path class="cls-3" d="M76.52,136.39h0l134.87-4.3s4.3-2.69,4.3,7.52,7,172.24,7,172.24L87,315.74s-9.1.44-13.17-.94a38.51,38.51,0,0,0-14-2.42c-9.67,0-12.36,3.5-13.88,12.37a8.81,8.81,0,0,1-1.7.05c0-7.27,1.61-179.28,1.61-179.28S43.74,132.09,76.52,136.39Z" transform="translate(-43.78 -12.33)"/><line class="cls-4" x1="32.74" y1="305.96" x2="31.13" y2="146.37"/><rect class="cls-5" x="74.53" y="148.06" width="4.3" height="167.72" rx="0.78" transform="matrix(1, -0.01, 0.01, 1, -46.12, -11.54)"/><path class="cls-1" d="M220.45,314.91l0,20.86L77.21,339.25S62.5,352.48,52.9,345.77c-10.49-7.32-9.35-28,3.12-30.58,5.13-1.05,14.81,1.2,20.63,4.45C84.3,319.16,220.45,314.91,220.45,314.91Z" transform="translate(-43.78 -12.33)"/></svg>